<svg id="Layer_1" data-name="Layer 1" xmlns="http://www.w3.org/2000/svg" viewBox="0 0 273.67 273.35"><defs><style>.cls-1{fill:#f37979;}.cls-2{font-size:24.03px;font-family:Roboto-Bold, Roboto;font-weight:700;}.cls-2,.cls-7{fill:#9bc2be;}.cls-3{letter-spacing:-0.03em;}.cls-4{letter-spacing:-0.01em;}.cls-5{letter-spacing:0.02em;}.cls-6{letter-spacing:-0.01em;}</style></defs><rect class="cls-1" width="273.67" height="273.35" rx="24.45"/><text class="cls-2" transform="translate(41.85 224.49)"><tspan class="cls-3">T</tspan><tspan class="cls-4" x="14.1" y="0">r</tspan><tspan x="22.52" y="0">anspo</tspan><tspan class="cls-5" x="88.34" y="0">r</tspan><tspan x="97.69" y="0">t Carbon </tspan><tspan x="15.1" y="28.84">Calcula</tspan><tspan class="cls-6" x="95.31" y="28.84">t</tspan><tspan x="103.08" y="28.84">or App</tspan></text><path class="cls-7" d="M226.5,175.72H215.3c-2.29,8.32-6.14,12-12.48,11.93s-10.13-3.71-12.3-11.81h-30c-.46,3.73-1.79,7.07-5,9.41a12.16,12.16,0,0,1-7.21,2.39c-6.23,0-9.56-3.12-12.49-11.92h-9.17c-.07-.66-.17-1.17-.17-1.68,0-5.49,0-11,0-16.47,0-1.28.27-1.86,1.73-2q7.57-1,15.09-2.35a4.07,4.07,0,0,0,2.36-1.5c3.21-4.48,6.33-9,9.4-13.6a2.93,2.93,0,0,1,2.78-1.52q16.32.09,32.65,0A2.81,2.81,0,0,1,193,138c3.11,4.63,6.26,9.24,9.52,13.77a3.87,3.87,0,0,0,2.38,1.4c6.73.9,13.48,1.66,20.21,2.55a1.92,1.92,0,0,1,1.29,1.29C226.52,163.1,226.5,169.25,226.5,175.72Z" transform="translate(0.22 0.16)"/><path class="cls-7" d="M185.78,46.12a4.54,4.54,0,1,1-4.58-4.62A4.55,4.55,0,0,1,185.78,46.12Z" transform="translate(0.22 0.16)"/><path class="cls-7" d="M82.22,84.47a4.47,4.47,0,1,1,4.64-4.55A4.56,4.56,0,0,1,82.22,84.47Z" transform="translate(0.22 0.16)"/><path class="cls-7" d="M161.92,16.59A4.56,4.56,0,0,1,157.27,12a4.55,4.55,0,0,1,4.61-4.39,4.47,4.47,0,1,1,0,8.94Z" transform="translate(0.22 0.16)"/><path class="cls-7" d="M166.1,46.09a4.64,4.64,0,0,1-4.71,4.52,4.56,4.56,0,0,1,.06-9.11A4.65,4.65,0,0,1,166.1,46.09Z" transform="translate(0.22 0.16)"/><path class="cls-7" d="M161.9,84.47a4.47,4.47,0,1,1,4.6-4.57A4.54,4.54,0,0,1,161.9,84.47Z" transform="translate(0.22 0.16)"/><path class="cls-7" d="M225.3,46a4.71,4.71,0,0,1-4.63,4.63A4.56,4.56,0,1,1,225.3,46Z" transform="translate(0.22 0.16)"/><path class="cls-7" d="M146.43,46a4.63,4.63,0,1,1-4.62-4.47A4.76,4.76,0,0,1,146.43,46Z" transform="translate(0.22 0.16)"/><path class="cls-7" d="M102.26,84.47A4.47,4.47,0,1,1,106.78,80,4.52,4.52,0,0,1,102.26,84.47Z" transform="translate(0.22 0.16)"/><path class="cls-7" d="M82.23,152.35a4.47,4.47,0,1,1,4.63-4.55A4.55,4.55,0,0,1,82.23,152.35Z" transform="translate(0.22 0.16)"/><path class="cls-7" d="M82.26,41.5A4.56,4.56,0,1,1,77.62,46,4.78,4.78,0,0,1,82.26,41.5Z" transform="translate(0.22 0.16)"/><path class="cls-7" d="M82.22,109.39a4.56,4.56,0,1,1,.06,9.11,4.56,4.56,0,1,1-.06-9.11Z" transform="translate(0.22 0.16)"/><path class="cls-7" d="M211.6,92.47A4.58,4.58,0,0,1,216.3,97a4.63,4.63,0,1,1-4.7-4.51Z" transform="translate(0.22 0.16)"/><path class="cls-7" d="M211.75,67.53a4.62,4.62,0,0,1-4.7-4.53,4.63,4.63,0,0,1,9.25.07A4.6,4.6,0,0,1,211.75,67.53Z" transform="translate(0.22 0.16)"/><path class="cls-7" d="M86.86,181.87a4.62,4.62,0,1,1-4.66-4.59A4.67,4.67,0,0,1,86.86,181.87Z" transform="translate(0.22 0.16)"/><path class="cls-7" d="M205.59,46a4.74,4.74,0,0,1-4.49,4.58A4.56,4.56,0,1,1,201,41.5,4.76,4.76,0,0,1,205.59,46Z" transform="translate(0.22 0.16)"/><path class="cls-7" d="M106.79,181.8a4.77,4.77,0,0,1-4.71,4.58,4.71,4.71,0,0,1-4.52-4.54,4.66,4.66,0,0,1,4.68-4.56A4.73,4.73,0,0,1,106.79,181.8Z" transform="translate(0.22 0.16)"/><path class="cls-7" d="M131.94,67.53A4.51,4.51,0,1,1,136.66,63,4.63,4.63,0,0,1,131.94,67.53Z" transform="translate(0.22 0.16)"/><path class="cls-7" d="M132.17,24.58a4.65,4.65,0,0,1,4.49,4.54,4.63,4.63,0,0,1-9.26-.07A4.65,4.65,0,0,1,132.17,24.58Z" transform="translate(0.22 0.16)"/><path class="cls-7" d="M126.62,113.84a4.55,4.55,0,1,1-9.09.2,4.55,4.55,0,1,1,9.09-.2Z" transform="translate(0.22 0.16)"/><path class="cls-7" d="M66.89,113.92a4.57,4.57,0,0,1-4.64,4.58,4.56,4.56,0,1,1,.17-9.11A4.56,4.56,0,0,1,66.89,113.92Z" transform="translate(0.22 0.16)"/><path class="cls-7" d="M66.89,46a4.56,4.56,0,0,1-4.6,4.6,4.56,4.56,0,1,1,.09-9.11A4.58,4.58,0,0,1,66.89,46Z" transform="translate(0.22 0.16)"/><path class="cls-7" d="M106.91,46.08a4.57,4.57,0,0,1-4.68,4.53,4.56,4.56,0,0,1,0-9.11A4.57,4.57,0,0,1,106.91,46.08Z" transform="translate(0.22 0.16)"/><path class="cls-7" d="M117.53,46a4.55,4.55,0,1,1,4.61,4.59A4.55,4.55,0,0,1,117.53,46Z" transform="translate(0.22 0.16)"/><path class="cls-7" d="M102.12,118.5a4.56,4.56,0,1,1,.08-9.11,4.56,4.56,0,1,1-.08,9.11Z" transform="translate(0.22 0.16)"/><path class="cls-7" d="M112.09,24.58a4.53,4.53,0,0,1,4.61,4.58,4.6,4.6,0,1,1-4.61-4.58Z" transform="translate(0.22 0.16)"/><path class="cls-7" d="M151.92,24.58A4.53,4.53,0,1,1,147.37,29,4.53,4.53,0,0,1,151.92,24.58Z" transform="translate(0.22 0.16)"/><path class="cls-7" d="M96.74,131a4.54,4.54,0,1,1-4.58-4.6A4.48,4.48,0,0,1,96.74,131Z" transform="translate(0.22 0.16)"/><path class="cls-7" d="M52.38,169.35a4.61,4.61,0,0,1-4.62-4.6A4.63,4.63,0,0,1,57,165,4.63,4.63,0,0,1,52.38,169.35Z" transform="translate(0.22 0.16)"/><path class="cls-7" d="M171.92,24.58a4.46,4.46,0,0,1,4.47,4.66,4.54,4.54,0,1,1-4.47-4.66Z" transform="translate(0.22 0.16)"/><path class="cls-7" d="M92.23,92.48a4.5,4.5,0,1,1-4.56,4.36A4.44,4.44,0,0,1,92.23,92.48Z" transform="translate(0.22 0.16)"/><path class="cls-7" d="M67.73,130.86a4.57,4.57,0,1,1,4.6,4.57A4.52,4.52,0,0,1,67.73,130.86Z" transform="translate(0.22 0.16)"/><path class="cls-7" d="M116.7,130.88a4.56,4.56,0,0,1-4.65,4.55,4.53,4.53,0,1,1,4.65-4.55Z" transform="translate(0.22 0.16)"/><path class="cls-7" d="M92.14,67.53a4.51,4.51,0,1,1,4.59-4.34A4.46,4.46,0,0,1,92.14,67.53Z" transform="translate(0.22 0.16)"/><path class="cls-7" d="M176.4,63a4.54,4.54,0,1,1-4.5-4.46A4.46,4.46,0,0,1,176.4,63Z" transform="translate(0.22 0.16)"/><path class="cls-7" d="M67.73,29.11a4.57,4.57,0,0,1,9.14-.05,4.57,4.57,0,0,1-9.14.05Z" transform="translate(0.22 0.16)"/><path class="cls-7" d="M196.33,29.11a4.56,4.56,0,0,1-4.48,4.52,4.53,4.53,0,1,1-.15-9.05A4.49,4.49,0,0,1,196.33,29.11Z" transform="translate(0.22 0.16)"/><path class="cls-7" d="M206.29,80.09a4.56,4.56,0,1,1-4.37-4.55A4.43,4.43,0,0,1,206.29,80.09Z" transform="translate(0.22 0.16)"/><path class="cls-7" d="M67.73,97a4.47,4.47,0,0,1,4.47-4.48A4.51,4.51,0,1,1,67.73,97Z" transform="translate(0.22 0.16)"/><path class="cls-7" d="M116.7,96.89a4.6,4.6,0,1,1-4.76-4.41A4.52,4.52,0,0,1,116.7,96.89Z" transform="translate(0.22 0.16)"/><path class="cls-7" d="M147.37,97a4.5,4.5,0,0,1,4.42-4.54A4.51,4.51,0,1,1,147.37,97Z" transform="translate(0.22 0.16)"/><path class="cls-7" d="M176.4,97a4.54,4.54,0,1,1-4.59-4.54A4.47,4.47,0,0,1,176.4,97Z" transform="translate(0.22 0.16)"/><path class="cls-7" d="M46.5,130.83a4.59,4.59,0,1,1,4.59,4.6A4.54,4.54,0,0,1,46.5,130.83Z" transform="translate(0.22 0.16)"/><path class="cls-7" d="M116.7,63a4.52,4.52,0,0,1-4.63,4.55A4.51,4.51,0,1,1,116.7,63Z" transform="translate(0.22 0.16)"/><path class="cls-7" d="M62.4,152.35a4.47,4.47,0,1,1,4.49-4.43A4.46,4.46,0,0,1,62.4,152.35Z" transform="translate(0.22 0.16)"/><path class="cls-7" d="M151.88,67.53a4.51,4.51,0,0,1-4.51-4.66,4.59,4.59,0,1,1,4.51,4.66Z" transform="translate(0.22 0.16)"/><path class="cls-7" d="M92.26,160.38a4.48,4.48,0,1,1-4.59,4.31A4.39,4.39,0,0,1,92.26,160.38Z" transform="translate(0.22 0.16)"/><path class="cls-7" d="M112,169.34a4.48,4.48,0,1,1,.2-9,4.46,4.46,0,0,1,4.47,4.66A4.54,4.54,0,0,1,112,169.34Z" transform="translate(0.22 0.16)"/><path class="cls-7" d="M62.42,84.46A4.47,4.47,0,1,1,66.89,80,4.44,4.44,0,0,1,62.42,84.46Z" transform="translate(0.22 0.16)"/><path class="cls-7" d="M72.28,67.53a4.5,4.5,0,0,1-4.55-4.61,4.57,4.57,0,1,1,4.55,4.61Z" transform="translate(0.22 0.16)"/><path class="cls-7" d="M122.08,75.54a4.46,4.46,0,1,1-4.55,4.4A4.4,4.4,0,0,1,122.08,75.54Z" transform="translate(0.22 0.16)"/><path class="cls-7" d="M72.19,169.34a4.48,4.48,0,1,1,4.67-4.49A4.49,4.49,0,0,1,72.19,169.34Z" transform="translate(0.22 0.16)"/><path class="cls-7" d="M196.33,63a4.57,4.57,0,1,1-4.48-4.49A4.49,4.49,0,0,1,196.33,63Z" transform="translate(0.22 0.16)"/><path class="cls-7" d="M126.62,12.15a4.55,4.55,0,0,1-9.09-.17,4.55,4.55,0,0,1,9.09.17Z" transform="translate(0.22 0.16)"/><path class="cls-7" d="M142,7.65a4.39,4.39,0,0,1,4.55,4.41,4.55,4.55,0,0,1-9.09,0A4.41,4.41,0,0,1,142,7.65Z" transform="translate(0.22 0.16)"/><path class="cls-7" d="M141.92,75.54A4.46,4.46,0,1,1,137.44,80,4.39,4.39,0,0,1,141.92,75.54Z" transform="translate(0.22 0.16)"/><path class="cls-7" d="M221.64,75.54A4.46,4.46,0,1,1,217.1,80,4.37,4.37,0,0,1,221.64,75.54Z" transform="translate(0.22 0.16)"/><path class="cls-7" d="M185.77,80a4.53,4.53,0,1,1-4.47-4.47A4.36,4.36,0,0,1,185.77,80Z" transform="translate(0.22 0.16)"/></svg>